<svg version="1.1" viewBox="0.0 0.0 194.08923884514437 100.0" fill="none" stroke="none" stroke-linecap="square" stroke-miterlimit="10" xmlns:xlink="http://www.w3.org/1999/xlink" xmlns="http://www.w3.org/2000/svg"><clipPath id="p.0"><path d="m0 0l194.08923 0l0 100.0l-194.08923 0l0 -100.0z" clip-rule="nonzero"/></clipPath><g clip-path="url(#p.0)"><path fill="#000000" fill-opacity="0.0" d="m0 0l194.08923 0l0 100.0l-194.08923 0z" fill-rule="evenodd"/><path fill="#000a13" d="m0.50256217 40.67157l37.88247 0l0 40.156013l-18.941235 10.039001l-18.941236 -10.039001z" fill-rule="evenodd"/><path stroke="#f1c232" stroke-width="1.0" stroke-linejoin="round" stroke-linecap="butt" d="m0.50256217 40.67157l37.88247 0l0 40.156013l-18.941235 10.039001l-18.941236 -10.039001z" fill-rule="evenodd"/><path fill="#000a13" d="m5.5500817 43.837738l0 0c0 -7.681164 6.226813 -13.907974 13.907976 -13.907974l0 0c3.6886234 0 7.2261715 1.4652996 9.834423 4.073551c2.6082516 2.6082497 4.073551 6.1457977 4.073551 9.834423l0 0c0 7.681164 -6.2268124 13.907974 -13.907974 13.907974l0 0c-7.681163 0 -13.907976 -6.2268105 -13.907976 -13.907974z" fill-rule="evenodd"/><path stroke="#f1c232" stroke-width="1.0" stroke-linejoin="round" stroke-linecap="butt" d="m5.5500817 43.837738l0 0c0 -7.681164 6.226813 -13.907974 13.907976 -13.907974l0 0c3.6886234 0 7.2261715 1.4652996 9.834423 4.073551c2.6082516 2.6082497 4.073551 6.1457977 4.073551 9.834423l0 0c0 7.681164 -6.2268124 13.907974 -13.907974 13.907974l0 0c-7.681163 0 -13.907976 -6.2268105 -13.907976 -13.907974z" fill-rule="evenodd"/><path fill="#000a13" d="m39.25578 30.939644l37.882473 0l0 40.156013l-18.941235 10.039001l-18.941238 -10.039001z" fill-rule="evenodd"/><path stroke="#f1c232" stroke-width="1.0" stroke-linejoin="round" stroke-linecap="butt" d="m39.25578 30.939644l37.882473 0l0 40.156013l-18.941235 10.039001l-18.941238 -10.039001z" fill-rule="evenodd"/><path fill="#000a13" d="m44.3033 34.105812l0 0c0 -7.681164 6.2268143 -13.907976 13.907974 -13.907976l0 0c3.6886253 0 7.2261734 1.4653015 9.834427 4.073553c2.6082458 2.6082497 4.0735474 6.1457977 4.0735474 9.834423l0 0c0 7.68116 -6.2268066 13.907974 -13.907974 13.907974l0 0c-7.68116 0 -13.907974 -6.2268143 -13.907974 -13.907974z" fill-rule="evenodd"/><path stroke="#f1c232" stroke-width="1.0" stroke-linejoin="round" stroke-linecap="butt" d="m44.3033 34.105812l0 0c0 -7.681164 6.2268143 -13.907976 13.907974 -13.907976l0 0c3.6886253 0 7.2261734 1.4653015 9.834427 4.073553c2.6082458 2.6082497 4.0735474 6.1457977 4.0735474 9.834423l0 0c0 7.68116 -6.2268066 13.907974 -13.907974 13.907974l0 0c-7.68116 0 -13.907974 -6.2268143 -13.907974 -13.907974z" fill-rule="evenodd"/><path fill="#000a13" d="m78.03433 19.393215l37.882477 0l0 40.156013l-18.941238 10.039005l-18.941238 -10.039005z" fill-rule="evenodd"/><path stroke="#f1c232" stroke-width="1.0" stroke-linejoin="round" stroke-linecap="butt" d="m78.03433 19.393215l37.882477 0l0 40.156013l-18.941238 10.039005l-18.941238 -10.039005z" fill-rule="evenodd"/><path fill="#000a13" d="m83.081856 22.559381l0 0c0 -7.681162 6.2268143 -13.907974 13.907974 -13.907974l0 0c3.6886215 0 7.2261734 1.4652996 9.834427 4.073551c2.6082458 2.6082516 4.0735474 6.1457996 4.0735474 9.834423l0 0c0 7.681162 -6.2268143 13.907976 -13.907974 13.907976l0 0c-7.68116 0 -13.907974 -6.2268143 -13.907974 -13.907976z" fill-rule="evenodd"/><path stroke="#f1c232" stroke-width="1.0" stroke-linejoin="round" stroke-linecap="butt" d="m83.081856 22.559381l0 0c0 -7.681162 6.2268143 -13.907974 13.907974 -13.907974l0 0c3.6886215 0 7.2261734 1.4652996 9.834427 4.073551c2.6082458 2.6082516 4.0735474 6.1457996 4.0735474 9.834423l0 0c0 7.681162 -6.2268143 13.907976 -13.907974 13.907976l0 0c-7.68116 0 -13.907974 -6.2268143 -13.907974 -13.907976z" fill-rule="evenodd"/><path fill="#000a13" d="m116.81289 30.939644l37.88247 0l0 40.156013l-18.941238 10.039001l-18.94123 -10.039001z" fill-rule="evenodd"/><path stroke="#f1c232" stroke-width="1.0" stroke-linejoin="round" stroke-linecap="butt" d="m116.81289 30.939644l37.88247 0l0 40.156013l-18.941238 10.039001l-18.94123 -10.039001z" fill-rule="evenodd"/><path fill="#000a13" d="m121.86041 34.105812l0 0c0 -7.681164 6.2268066 -13.907976 13.907974 -13.907976l0 0c3.6886292 0 7.226166 1.4653015 9.834427 4.073553c2.6082458 2.6082497 4.0735474 6.1457977 4.0735474 9.834423l0 0c0 7.68116 -6.2268066 13.907974 -13.907974 13.907974l0 0c-7.6811676 0 -13.907974 -6.2268143 -13.907974 -13.907974z" fill-rule="evenodd"/><path stroke="#f1c232" stroke-width="1.0" stroke-linejoin="round" stroke-linecap="butt" d="m121.86041 34.105812l0 0c0 -7.681164 6.2268066 -13.907976 13.907974 -13.907976l0 0c3.6886292 0 7.226166 1.4653015 9.834427 4.073553c2.6082458 2.6082497 4.0735474 6.1457977 4.0735474 9.834423l0 0c0 7.68116 -6.2268066 13.907974 -13.907974 13.907974l0 0c-7.6811676 0 -13.907974 -6.2268143 -13.907974 -13.907974z" fill-rule="evenodd"/><path fill="#000a13" d="m155.61336 40.67487l37.882477 0l0 40.15601l-18.941238 10.039009l-18.941238 -10.039009z" fill-rule="evenodd"/><path stroke="#f1c232" stroke-width="1.0" stroke-linejoin="round" stroke-linecap="butt" d="m155.61336 40.67487l37.882477 0l0 40.15601l-18.941238 10.039009l-18.941238 -10.039009z" fill-rule="evenodd"/><path fill="#000a13" d="m160.66089 43.841038l0 0c0 -7.681164 6.2268066 -13.907976 13.907974 -13.907976l0 0c3.688614 0 7.226166 1.4652996 9.834412 4.073553c2.608261 2.6082497 4.0735626 6.1457977 4.0735626 9.834423l0 0c0 7.68116 -6.226822 13.907974 -13.907974 13.907974l0 0c-7.6811676 0 -13.907974 -6.2268143 -13.907974 -13.907974z" fill-rule="evenodd"/><path stroke="#f1c232" stroke-width="1.0" stroke-linejoin="round" stroke-linecap="butt" d="m160.66089 43.841038l0 0c0 -7.681164 6.2268066 -13.907976 13.907974 -13.907976l0 0c3.688614 0 7.226166 1.4652996 9.834412 4.073553c2.608261 2.6082497 4.0735626 6.1457977 4.0735626 9.834423l0 0c0 7.68116 -6.226822 13.907974 -13.907974 13.907974l0 0c-7.6811676 0 -13.907974 -6.2268143 -13.907974 -13.907974z" fill-rule="evenodd"/><path fill="#000000" fill-opacity="0.0" d="m0.5031444 28.197744l192.97638 0l0 49.385826l-192.97638 0z" fill-rule="evenodd"/><path fill="#ffffff" d="m12.181016 64.61066l0 -25.921871l11.640626 0l0 3.90625l-5.921875 0l0 6.4375l4.515625 0l0 3.96875l-4.515625 0l0 7.734375l5.984375 0l0 3.8749962l-11.703126 0zm27.585281 5.09375q-0.703125 -0.328125 -1.703125 -1.046875q-0.984375 -0.71875 -1.96875 -1.703125q-0.96875 -0.96875 -1.640625 -1.984375q-0.125 0.03125 -0.265625 0.03125q-0.125 0 -0.28125 0q-2.906248 0 -4.609373 -1.0156212q-1.6875 -1.03125 -2.4375 -2.953125q-0.734375 -1.921875 -0.734375 -4.578125l0 -9.640625q0 -2.6875 0.734375 -4.5625q0.75 -1.890625 2.4375 -2.890625q1.703125 -1.015625 4.609373 -1.015625q2.9375 0 4.65625 1.015625q1.71875 1.0 2.453125 2.890625q0.734375 1.875 0.734375 4.5625l0 9.640625q0 1.8125 -0.34375 3.296875q-0.328125 1.46875 -1.078125 2.5625q-0.75 1.078125 -2.0 1.7187462q0.40625 0.453125 0.859375 0.875q0.453125 0.4375 0.890625 0.796875q0.453125 0.375 0.90625 0.609375l-1.21875 3.390625zm-5.859375 -8.781246q0.890625 0 1.3125 -0.4375q0.421875 -0.453125 0.546875 -1.15625q0.125 -0.703125 0.125 -1.4375l0 -12.484375q0 -0.765625 -0.125 -1.453125q-0.125 -0.6875 -0.546875 -1.125q-0.421875 -0.453125 -1.3125 -0.453125q-0.890625 0 -1.296875 0.453125q-0.40625 0.4375 -0.515625 1.125q-0.10937309 0.6875 -0.10937309 1.453125l0 12.484375q0 0.734375 0.10937309 1.4375q0.109375 0.703125 0.515625 1.15625q0.40625 0.4375 1.296875 0.4375zm18.814545 4.078121q-2.96875 0 -4.65625 -0.96875q-1.671875 -0.9843712 -2.34375 -2.8593712q-0.671875 -1.875 -0.671875 -4.59375l0 -17.890625l5.65625 0l0 18.75q0 0.796875 0.125 1.609375q0.125 0.796875 0.5625 1.3125q0.4375 0.5 1.328125 0.5q0.9375 0 1.34375 -0.5q0.421875 -0.515625 0.53125 -1.3125q0.109375 -0.8125 0.109375 -1.609375l0 -18.75l5.703125 0l0 17.890625q0 2.71875 -0.6875 4.59375q-0.6875 1.875 -2.359375 2.8593712q-1.65625 0.96875 -4.640625 0.96875zm11.362915 -0.390625l0 -25.921871l5.734375 0l0 25.921871l-5.734375 0zm9.600769 0l0 -25.921871l8.703125 0q2.328125 0 3.828125 0.890625q1.515625 0.875 2.25 2.5625q0.734375 1.671875 0.734375 4.0625q0 3.015625 -1.0 4.609375q-0.984375 1.578125 -2.6875 2.1875q-1.6875 0.59375 -3.796875 0.59375l-2.3125 0l0 11.015621l-5.71875 0zm5.71875 -15.015621l1.921875 0q1.0625 0 1.609375 -0.375q0.546875 -0.390625 0.71875 -1.15625q0.171875 -0.765625 0.171875 -1.953125q0 -0.984375 -0.140625 -1.734375q-0.140625 -0.75 -0.6875 -1.203125q-0.546875 -0.453125 -1.703125 -0.453125l-1.890625 0l0 6.875zm12.297287 15.015621l0 -25.921871l11.640625 0l0 3.90625l-5.921875 0l0 6.4375l4.515625 0l0 3.96875l-4.515625 0l0 7.734375l5.984375 0l0 3.8749962l-11.703125 0z" fill-rule="nonzero"/><path fill="#ffffff" d="m110.824615 64.61066l0 -17.281246l4.375 0q2.25 0 3.5 0.578125q1.265625 0.5625 1.78125 1.765625q0.515625 1.203125 0.515625 3.125l0 6.265625q0 1.9375 -0.515625 3.171875q-0.515625 1.21875 -1.765625 1.7968712q-1.234375 0.578125 -3.484375 0.578125l-4.40625 0zm3.8125 -2.6406212l0.59375 0q0.875 0 1.265625 -0.25q0.390625 -0.265625 0.484375 -0.78125q0.09375 -0.515625 0.09375 -1.28125l0 -7.53125q0 -0.765625 -0.125 -1.234375q-0.109375 -0.46875 -0.5 -0.671875q-0.375 -0.21875 -1.234375 -0.21875l-0.578125 0l0 11.96875zm8.685837 2.6406212l0 -17.281246l7.765625 0l0 2.609375l-3.953125 0l0 4.28125l3.015625 0l0 2.65625l-3.015625 0l0 5.15625l3.984375 0l0 2.5781212l-7.796875 0z" fill-rule="nonzero"/><path fill="#ffffff" d="m138.9573 64.61066l0 -25.921871l5.71875 0l0 22.046875l5.953125 0l0 3.8749962l-11.671875 0zm21.1819 0.390625q-2.90625 0 -4.609375 -1.0156212q-1.6875 -1.03125 -2.4375 -2.953125q-0.734375 -1.921875 -0.734375 -4.578125l0 -9.640625q0 -2.6875 0.734375 -4.5625q0.75 -1.890625 2.4375 -2.890625q1.703125 -1.015625 4.609375 -1.015625q2.9375 0 4.65625 1.015625q1.71875 1.0 2.453125 2.890625q0.734375 1.875 0.734375 4.5625l0 9.640625q0 2.65625 -0.734375 4.578125q-0.734375 1.921875 -2.453125 2.953125q-1.71875 1.0156212 -4.65625 1.0156212zm0 -4.078121q0.890625 0 1.3125 -0.4375q0.421875 -0.453125 0.546875 -1.15625q0.125 -0.703125 0.125 -1.4375l0 -12.484375q0 -0.765625 -0.125 -1.453125q-0.125 -0.6875 -0.546875 -1.125q-0.421875 -0.453125 -1.3125 -0.453125q-0.828125 0 -1.25 0.453125q-0.40625 0.4375 -0.546875 1.125q-0.125 0.6875 -0.125 1.453125l0 12.484375q0 0.734375 0.109375 1.4375q0.109375 0.703125 0.515625 1.15625q0.40625 0.4375 1.296875 0.4375zm11.33017 3.6874962l0 -25.921871l5.71875 0l0 22.046875l5.953125 0l0 3.8749962l-11.671875 0z" fill-rule="nonzero"/></g></svg>