<svg version="1.1" viewBox="0.0 0.0 238.81627296587928 100.0" fill="none" stroke="none" stroke-linecap="square" stroke-miterlimit="10" xmlns:xlink="http://www.w3.org/1999/xlink" xmlns="http://www.w3.org/2000/svg"><clipPath id="p.0"><path d="m0 0l238.81627 0l0 100.0l-238.81627 0l0 -100.0z" clip-rule="nonzero"/></clipPath><g clip-path="url(#p.0)"><path fill="#000000" fill-opacity="0.0" d="m0 0l238.81627 0l0 100.0l-238.81627 0z" fill-rule="evenodd"/><path fill="#000a13" d="m1.9274411 33.8682l37.882473 0l0 40.156017l-18.941236 10.039001l-18.941236 -10.039001z" fill-rule="evenodd"/><path stroke="#f1c232" stroke-width="1.0" stroke-linejoin="round" stroke-linecap="butt" d="m1.9274411 33.8682l37.882473 0l0 40.156017l-18.941236 10.039001l-18.941236 -10.039001z" fill-rule="evenodd"/><path fill="#000a13" d="m6.974961 37.034367l0 0c0 -7.681162 6.226813 -13.907974 13.907976 -13.907974l0 0c3.6886234 0 7.2261715 1.4653015 9.834423 4.073551c2.6082516 2.6082516 4.0735493 6.1458015 4.0735493 9.834423l0 0c0 7.681164 -6.2268105 13.907974 -13.907972 13.907974l0 0c-7.681163 0 -13.907976 -6.2268105 -13.907976 -13.907974z" fill-rule="evenodd"/><path stroke="#f1c232" stroke-width="1.0" stroke-linejoin="round" stroke-linecap="butt" d="m6.974961 37.034367l0 0c0 -7.681162 6.226813 -13.907974 13.907976 -13.907974l0 0c3.6886234 0 7.2261715 1.4653015 9.834423 4.073551c2.6082516 2.6082516 4.0735493 6.1458015 4.0735493 9.834423l0 0c0 7.681164 -6.2268105 13.907974 -13.907972 13.907974l0 0c-7.681163 0 -13.907976 -6.2268105 -13.907976 -13.907974z" fill-rule="evenodd"/><path fill="#000a13" d="m51.204628 24.132975l37.88247 0l0 40.156013l-18.941238 10.039001l-18.94123 -10.039001z" fill-rule="evenodd"/><path stroke="#f1c232" stroke-width="1.0" stroke-linejoin="round" stroke-linecap="butt" d="m51.204628 24.132975l37.88247 0l0 40.156013l-18.941238 10.039001l-18.94123 -10.039001z" fill-rule="evenodd"/><path fill="#000a13" d="m56.252148 27.299143l0 0c0 -7.681162 6.2268105 -13.907975 13.90797 -13.907975l0 0c3.6886292 0 7.2261734 1.4653006 9.834427 4.073552c2.6082535 2.6082497 4.0735474 6.1457977 4.0735474 9.834423l0 0c0 7.681162 -6.2268066 13.907976 -13.907974 13.907976l0 0c-7.68116 0 -13.90797 -6.2268143 -13.90797 -13.907976z" fill-rule="evenodd"/><path stroke="#f1c232" stroke-width="1.0" stroke-linejoin="round" stroke-linecap="butt" d="m56.252148 27.299143l0 0c0 -7.681162 6.2268105 -13.907975 13.90797 -13.907975l0 0c3.6886292 0 7.2261734 1.4653006 9.834427 4.073552c2.6082535 2.6082497 4.0735474 6.1457977 4.0735474 9.834423l0 0c0 7.681162 -6.2268066 13.907976 -13.907974 13.907976l0 0c-7.68116 0 -13.90797 -6.2268143 -13.90797 -13.907976z" fill-rule="evenodd"/><path fill="#000a13" d="m100.48181 12.586545l37.882477 0l0 40.156013l-18.941238 10.039005l-18.941238 -10.039005z" fill-rule="evenodd"/><path stroke="#f1c232" stroke-width="1.0" stroke-linejoin="round" stroke-linecap="butt" d="m100.48181 12.586545l37.882477 0l0 40.156013l-18.941238 10.039005l-18.941238 -10.039005z" fill-rule="evenodd"/><path fill="#000a13" d="m105.52933 15.752713l0 0c0 -7.681163 6.2268143 -13.907975 13.907974 -13.907975l0 0c3.6886292 0 7.2261734 1.4653004 9.834427 4.0735517c2.6082458 2.608251 4.0735474 6.145799 4.0735474 9.834423l0 0c0 7.681163 -6.2268066 13.907975 -13.907974 13.907975l0 0c-7.68116 0 -13.907974 -6.2268124 -13.907974 -13.907975z" fill-rule="evenodd"/><path stroke="#f1c232" stroke-width="1.0" stroke-linejoin="round" stroke-linecap="butt" d="m105.52933 15.752713l0 0c0 -7.681163 6.2268143 -13.907975 13.907974 -13.907975l0 0c3.6886292 0 7.2261734 1.4653004 9.834427 4.0735517c2.6082458 2.608251 4.0735474 6.145799 4.0735474 9.834423l0 0c0 7.681163 -6.2268066 13.907975 -13.907974 13.907975l0 0c-7.68116 0 -13.907974 -6.2268124 -13.907974 -13.907975z" fill-rule="evenodd"/><path fill="#000a13" d="m149.759 24.132975l37.88246 0l0 40.156013l-18.941238 10.039001l-18.941223 -10.039001z" fill-rule="evenodd"/><path stroke="#f1c232" stroke-width="1.0" stroke-linejoin="round" stroke-linecap="butt" d="m149.759 24.132975l37.88246 0l0 40.156013l-18.941238 10.039001l-18.941223 -10.039001z" fill-rule="evenodd"/><path fill="#000a13" d="m154.80652 27.299143l0 0c0 -7.681162 6.2268066 -13.907975 13.907974 -13.907975l0 0c3.6886292 0 7.226166 1.4653006 9.834427 4.073552c2.6082458 2.6082497 4.0735474 6.1457977 4.0735474 9.834423l0 0c0 7.681162 -6.2268066 13.907976 -13.907974 13.907976l0 0c-7.6811676 0 -13.907974 -6.2268143 -13.907974 -13.907976z" fill-rule="evenodd"/><path stroke="#f1c232" stroke-width="1.0" stroke-linejoin="round" stroke-linecap="butt" d="m154.80652 27.299143l0 0c0 -7.681162 6.2268066 -13.907975 13.907974 -13.907975l0 0c3.6886292 0 7.226166 1.4653006 9.834427 4.073552c2.6082458 2.6082497 4.0735474 6.1457977 4.0735474 9.834423l0 0c0 7.681162 -6.2268066 13.907976 -13.907974 13.907976l0 0c-7.6811676 0 -13.907974 -6.2268143 -13.907974 -13.907976z" fill-rule="evenodd"/><path fill="#000a13" d="m199.03618 33.8682l37.882477 0l0 40.156017l-18.941238 10.039001l-18.941238 -10.039001z" fill-rule="evenodd"/><path stroke="#f1c232" stroke-width="1.0" stroke-linejoin="round" stroke-linecap="butt" d="m199.03618 33.8682l37.882477 0l0 40.156017l-18.941238 10.039001l-18.941238 -10.039001z" fill-rule="evenodd"/><path fill="#000a13" d="m204.0837 37.034367l0 0c0 -7.681162 6.226822 -13.907974 13.907974 -13.907974l0 0c3.6886292 0 7.226181 1.4653015 9.834427 4.073551c2.608261 2.6082516 4.0735474 6.1458015 4.0735474 9.834423l0 0c0 7.681164 -6.2268066 13.907974 -13.907974 13.907974l0 0c-7.6811523 0 -13.907974 -6.2268105 -13.907974 -13.907974z" fill-rule="evenodd"/><path stroke="#f1c232" stroke-width="1.0" stroke-linejoin="round" stroke-linecap="butt" d="m204.0837 37.034367l0 0c0 -7.681162 6.226822 -13.907974 13.907974 -13.907974l0 0c3.6886292 0 7.226181 1.4653015 9.834427 4.073551c2.608261 2.6082516 4.0735474 6.1458015 4.0735474 9.834423l0 0c0 7.681164 -6.2268066 13.907974 -13.907974 13.907974l0 0c-7.6811523 0 -13.907974 -6.2268105 -13.907974 -13.907974z" fill-rule="evenodd"/><path fill="#000000" fill-opacity="0.0" d="m1.9265091 21.391077l234.99213 0l0 49.385826l-234.99213 0z" fill-rule="evenodd"/><path fill="#ffffff" d="m18.502277 30.285864l12.609375 0l0 4.234373l-6.40625 0l0 6.96875l4.890625 0l0 4.296875l-4.890625 0l0 8.390625l6.484375 0l0 4.1875l-12.6875 0l0 -28.078123zm29.881989 33.59375q-1.25 -0.53125 -2.984375 -2.046875q-1.734375 -1.5 -2.78125 -3.09375q-0.171875 0.046875 -0.578125 0.046875q-4.546875 0 -6.484375 -2.34375q-1.9375 -2.34375 -1.9375 -6.921875l0 -10.421875q0 -4.578125 1.9375 -6.875q1.9375 -2.312498 6.484375 -2.312498q4.5625 0 6.515625 2.328123q1.96875 2.3125 1.96875 6.859375l0 10.421875q0 3.09375 -0.890625 5.15625q-0.875 2.0625 -2.8125 3.0625q1.765625 1.90625 2.875 2.46875l-1.3125 3.671875zm-6.34375 -9.5q1.3125 0 1.71875 -0.875q0.421875 -0.890625 0.421875 -2.421875l0 -13.515625q0 -1.5625 -0.421875 -2.421875q-0.40625 -0.875 -1.71875 -0.875q-1.328125 0 -1.703125 0.859375q-0.375 0.84375 -0.375 2.4375l0 13.515625q0 1.53125 0.375 2.421875q0.375 0.875 1.703125 0.875zm20.371078 4.40625q-3.15625 0 -5.0 -1.015625q-1.828125 -1.03125 -2.578125 -3.015625q-0.734375 -2.0 -0.734375 -5.09375l0 -19.374998l6.125 0l0 20.312498q0 1.703125 0.4375 2.703125q0.4375 1.0 1.75 1.0q1.3125 0 1.7343712 -1.0q0.421875 -1.0 0.421875 -2.703125l0 -20.312498l6.15625 0l0 19.374998q0 3.09375 -0.765625 5.09375q-0.75 1.984375 -2.578125 3.015625q-1.8125 1.015625 -4.968746 1.015625zm12.29977 -28.499998l6.203125 0l0 28.078123l-6.203125 0l0 -28.078123zm10.400299 0l9.421875 0q3.71875 0 5.546875 2.109373q1.84375 2.09375 1.84375 6.046875q0 4.5 -2.140625 6.25q-2.125 1.75 -5.96875 1.75l-2.5 0l0 11.921875l-6.203125 0l0 -28.078123zm8.28125 11.828123q1.625 0 2.15625 -0.859375q0.546875 -0.875 0.546875 -2.921875q0 -1.875 -0.515625 -2.765625q-0.515625 -0.90625 -2.21875 -0.90625l-2.046875 0l0 7.453125l2.078125 0zm11.507492 -11.828123l12.609375 0l0 4.234373l-6.40625 0l0 6.96875l4.890625 0l0 4.296875l-4.890625 0l0 8.390625l6.484375 0l0 4.1875l-12.6875 0l0 -28.078123zm24.363373 0l7.1093903 0q3.640625 0 5.671875 0.90625q2.046875 0.9062481 2.890625 2.828123q0.859375 1.921875 0.859375 5.140625l0 10.1875q0 3.265625 -0.859375 5.203125q-0.84375 1.9375 -2.875 2.875q-2.015625 0.9375 -5.625 0.9375l-7.1718903 0l0 -28.078123zm7.1718903 23.781248q1.359375 0 2.0 -0.390625q0.640625 -0.40625 0.8125 -1.140625q0.171875 -0.75 0.171875 -2.21875l0 -12.234375q0 -1.34375 -0.1875 -2.046875q-0.1875 -0.71875 -0.84375 -1.0625q-0.640625 -0.34375 -1.984375 -0.34375l-0.9375 0l0 19.4375l0.96875 0zm13.136688 -23.781248l12.609375 0l0 4.234373l-6.40625 0l0 6.96875l4.890625 0l0 4.296875l-4.890625 0l0 8.390625l6.484375 0l0 4.1875l-12.6875 0l0 -28.078123zm24.363373 0l6.203125 0l0 23.890623l6.453125 0l0 4.1875l-12.65625 0l0 -28.078123zm22.948944 28.499998q-4.546875 0 -6.484375 -2.34375q-1.9375 -2.34375 -1.9375 -6.921875l0 -10.421875q0 -4.578125 1.9375 -6.875q1.9375 -2.312498 6.484375 -2.312498q4.5625 0 6.515625 2.328123q1.96875 2.3125 1.96875 6.859375l0 10.421875q0 4.578125 -1.96875 6.921875q-1.953125 2.34375 -6.515625 2.34375zm0 -4.40625q1.3125 0 1.71875 -0.875q0.421875 -0.890625 0.421875 -2.421875l0 -13.515625q0 -1.5625 -0.421875 -2.421875q-0.40625 -0.875 -1.71875 -0.875q-1.25 0 -1.671875 0.890625q-0.40625 0.890625 -0.40625 2.40625l0 13.515625q0 1.53125 0.375 2.421875q0.375 0.875 1.703125 0.875zm12.261719 -24.093748l6.203125 0l0 23.890623l6.453125 0l0 4.1875l-12.65625 0l0 -28.078123z" fill-rule="nonzero"/></g></svg>